<svg width="20" height="25" viewBox="0 0 20 25" fill="none" xmlns="http://www.w3.org/2000/svg">
<rect y="2.5" width="20" height="20" rx="10" fill="#4BC2F7"/>
<path d="M13 8.8V6.6C13 6.54477 12.9558 6.5 12.9006 6.5H10.0833C9.15 6.5 8.33333 7.1 8.33333 8.3V10.6C8.33333 10.6552 8.28856 10.7 8.23333 10.7H6.1C6.04477 10.7 6 10.7448 6 10.8V13C6 13.0552 6.04477 13.1 6.1 13.1H8.23333C8.28856 13.1 8.33333 13.1448 8.33333 13.2V18.4C8.33333 18.4552 8.3781 18.5 8.43333 18.5H10.5667C10.6219 18.5 10.6667 18.4552 10.6667 18.4V13.2C10.6667 13.1448 10.7114 13.1 10.7667 13.1H12.3381C12.3842 13.1 12.4243 13.0684 12.4352 13.0236L12.97 10.8236C12.9853 10.7607 12.9376 10.7 12.8728 10.7H10.7667C10.7114 10.7 10.6667 10.6552 10.6667 10.6V9C10.6667 8.94477 10.7114 8.9 10.7667 8.9H12.9C12.9552 8.9 13 8.85523 13 8.8Z" stroke="white"/>
</svg>
