<svg width="20" height="21" viewBox="0 0 20 21" fill="none" xmlns="http://www.w3.org/2000/svg">
<rect y="0.5" width="20" height="20" rx="10" fill="#4BC2F7"/>
<path d="M5 7.80769C5 12.056 8.44396 15.5 12.6923 15.5H13.8462C14.4834 15.5 15 14.9834 15 14.3462V13.6428C15 13.378 14.8198 13.1473 14.563 13.0831L12.2947 12.516C12.0695 12.4597 11.8325 12.5438 11.6932 12.7295L11.1957 13.3929C11.0513 13.5855 10.8015 13.6706 10.5756 13.5878C8.87969 12.9666 7.53341 11.6203 6.91219 9.92444C6.8294 9.69846 6.91454 9.44871 7.10708 9.30431L7.77047 8.80676C7.95617 8.66749 8.04031 8.43049 7.98402 8.2053L7.41694 5.937C7.35274 5.68017 7.12198 5.5 6.85724 5.5H6.15385C5.51659 5.5 5 6.01659 5 6.65385V7.80769Z" stroke="white" stroke-linecap="round" stroke-linejoin="round"/>
</svg>
