<svg width="100" height="100" viewBox="0 0 100 100" fill="none" xmlns="http://www.w3.org/2000/svg">
<path d="M73.9322 27.6771V52.7304H66.9612V27.6771C66.9612 18.1506 59.8358 10.4031 51.0716 10.4031C42.3058 10.4031 35.1819 18.1506 35.1819 27.6771V52.7304H28.2109V27.6771C28.2109 14.0334 38.4656 2.9375 51.0716 2.9375C63.6761 2.9375 73.9322 14.0334 73.9322 27.6771Z" fill="#989BA4"/>
<path d="M28.2109 34.1875L35.1819 34.4724V52.7264H28.2109V34.1875Z" fill="#BABDC3"/>
<path d="M73.9319 36.0785V52.7269H66.9609V35.7891L73.9319 36.0785Z" fill="#BABDC3"/>
<path d="M78.4606 38.4609H23.693C21.2565 38.4609 19.2812 40.4362 19.2812 42.8727V92.6404C19.2812 95.0769 21.2565 97.0522 23.693 97.0522H78.4606C80.8972 97.0522 82.8724 95.0769 82.8724 92.6404V42.8727C82.8724 40.4362 80.8972 38.4609 78.4606 38.4609Z" fill="#4BC2F7"/>
<path opacity="0.1" d="M82.8737 38.4609H51.0781V97.0522H82.8737V38.4609Z" fill="black"/>
<path d="M53.7601 63.9036L56.4217 76.7288H45.125L47.7866 63.9036C46.1953 62.8815 45.125 61.101 45.125 59.0567C45.125 55.8591 47.6575 53.3203 50.7734 53.3203C53.8893 53.3203 56.4217 55.8591 56.4217 59.0567C56.4217 61.101 55.3514 62.88 53.7601 63.9036Z" fill="#0F2731"/>
<path d="M86.6725 56.598L85.3645 58.6865C84.8011 59.5862 83.7154 59.8368 82.8318 59.2704C82.0111 58.7449 81.7074 57.604 82.2708 56.7043L84.3636 53.3618C84.3839 53.3297 84.4154 53.3501 84.4349 53.3178C84.4237 53.2653 84.4237 53.2653 84.4441 53.2332C84.9676 52.398 86.1561 52.1239 86.9768 52.6494C88.9659 53.9238 91.5819 53.3488 92.8289 51.3564C94.0966 49.3312 93.4734 46.7246 91.4843 45.4501C90.1905 44.6206 88.6105 44.5988 87.3471 45.2761C86.4223 45.7645 85.3139 45.414 84.8385 44.4789C84.3942 43.563 84.7251 42.4703 85.65 41.9819C88.0339 40.718 91.0257 40.7433 93.4565 42.3013C97.119 44.6483 98.2259 49.5912 95.8917 53.3193C93.8989 56.501 90.0505 57.7726 86.6725 56.598ZM82.265 63.6364L81.9032 64.2149C81.3398 65.1146 80.2541 65.3651 79.3705 64.7988C78.5498 64.2733 78.2461 63.1324 78.8095 62.2327L79.172 61.6545C79.7151 60.7868 80.8841 60.5451 81.7047 61.0706C82.5884 61.637 82.8088 62.769 82.265 63.6364Z" fill="#4069B8"/>
<path d="M22.9429 12.1633L22.7902 11.5401C22.7244 11.2716 22.8732 11.0199 23.1376 10.9531C23.383 10.8909 23.6497 11.0375 23.7155 11.3059L23.9601 12.3033C23.9624 12.3129 23.9529 12.3152 23.9554 12.3248C23.9672 12.332 23.9672 12.332 23.9695 12.3416C24.0305 12.591 23.8675 12.8664 23.6221 12.9286C23.0271 13.0792 22.6631 13.6804 22.8089 14.2748C22.9572 14.8791 23.5538 15.2273 24.1488 15.0768C24.5359 14.979 24.8244 14.6819 24.9259 14.32C25.0016 14.0563 25.2663 13.908 25.5257 13.985C25.7759 14.0644 25.9195 14.3232 25.8437 14.5869C25.6495 15.2673 25.1062 15.8326 24.3791 16.0165C23.2835 16.2936 22.1655 15.619 21.8927 14.5065C21.6601 13.557 22.1165 12.5963 22.9429 12.1633ZM22.4281 10.063L22.3857 9.89049C22.3199 9.62202 22.4687 9.37036 22.7331 9.30352C22.9785 9.24135 23.2452 9.38788 23.311 9.65635L23.3533 9.82898C23.4168 10.0878 23.2513 10.3538 23.0058 10.416C22.7415 10.4828 22.4914 10.322 22.4281 10.063Z" fill="#4069B8"/>
<path d="M81.1691 14.9436L81.4078 13.9694C81.5107 13.5498 81.278 13.1564 80.8648 13.052C80.4812 12.9548 80.0643 13.1838 79.9614 13.6034L79.5792 15.1623C79.5756 15.1774 79.5904 15.181 79.5865 15.1959C79.5681 15.2073 79.5681 15.2073 79.5645 15.2223C79.4691 15.612 79.7239 16.0426 80.1075 16.1397C81.0374 16.375 81.6064 17.3148 81.3785 18.2439C81.1468 19.1883 80.2142 19.7327 79.2842 19.4974C78.6792 19.3445 78.2283 18.8802 78.0696 18.3145C77.9512 17.9024 77.5376 17.6706 77.1321 17.7909C76.741 17.9151 76.5166 18.3195 76.635 18.7316C76.9386 19.7952 77.7877 20.6787 78.9243 20.9661C80.6367 21.3993 82.3842 20.3448 82.8106 18.6061C83.1742 17.122 82.4608 15.6203 81.1691 14.9436ZM81.9737 11.6608L82.04 11.3911C82.1429 10.9715 81.9102 10.5781 81.497 10.4736C81.1134 10.3765 80.6965 10.6055 80.5937 11.0251L80.5277 11.2949C80.4284 11.6995 80.6871 12.1152 81.0707 12.2124C81.4839 12.3169 81.8748 12.0655 81.9737 11.6608Z" fill="#4069B8"/>
<path d="M18.7225 50.2113L19.8191 52.8471C20.2916 53.9824 19.7968 55.175 18.6641 55.6288C17.6127 56.0505 16.327 55.5715 15.8545 54.4361L14.099 50.2182C14.0823 50.1775 14.1229 50.1615 14.1054 50.1214C14.0482 50.0967 14.0482 50.0967 14.0315 50.056C13.5932 49.0015 14.1351 47.6961 15.1865 47.2743C17.7355 46.2526 18.9551 43.3983 17.9084 40.8845C16.8446 38.3292 13.9546 37.168 11.4055 38.1897C9.74691 38.8539 8.66067 40.3302 8.45032 41.9768C8.28929 43.1773 7.20965 43.9879 6.00303 43.8089C4.83559 43.6136 4.02342 42.568 4.18445 41.3675C4.59487 38.2699 6.6366 35.4637 9.75224 34.2156C14.4461 32.3347 19.8759 34.6072 21.8339 39.3117C23.5044 43.3273 22.1137 47.8121 18.7225 50.2113ZM22.4185 59.0935L22.7227 59.8232C23.1951 60.9585 22.7003 62.1511 21.5677 62.6049C20.5163 63.0266 19.2305 62.5476 18.758 61.4122L18.4547 60.6821C17.9989 59.5874 18.5583 58.3221 19.6097 57.9003C20.7423 57.4466 21.9635 57.9983 22.4185 59.0935Z" fill="#4069B8"/>
<path d="M92.1875 92H7.81251C6.25926 92 5 90.7544 5 89.218V74.7819C5 73.2456 6.25926 72 7.81251 72H92.1875C93.7407 72 95 73.2456 95 74.7819V89.2178C95 90.7544 93.7407 92 92.1875 92Z" fill="#B7E7FC"/>
<path d="M20.1629 82.0091L22.155 83.0711L21.0224 84.9251L18.9732 83.7075L19.0321 85.929H16.8067L16.8657 83.7075L14.815 84.9251L13.7031 83.0711L15.6934 82.0091L13.7031 80.9282L14.815 79.0743L16.8657 80.3107L16.8067 78.0703H19.0321L18.9732 80.3107L21.0224 79.0743L22.155 80.9282L20.1629 82.0091Z" fill="#4069B8"/>
<path d="M32.5535 82.0091L34.5456 83.0711L33.413 84.9251L31.3638 83.7075L31.4227 85.929H29.1974L29.2563 83.7075L27.2056 84.9251L26.0938 83.0711L28.0841 82.0091L26.0938 80.9282L27.2056 79.0743L29.2563 80.3107L29.1974 78.0703H31.4227L31.3638 80.3107L33.413 79.0743L34.5456 80.9282L32.5535 82.0091Z" fill="#4069B8"/>
<path d="M44.9287 82.0091L46.9204 83.0711L45.788 84.9251L43.7388 83.7075L43.7977 85.929H41.5724L41.6313 83.7075L39.5806 84.9251L38.4688 83.0711L40.4591 82.0091L38.4688 80.9282L39.5806 79.0743L41.6313 80.3107L41.5724 78.0703H43.7977L43.7388 80.3107L45.788 79.0743L46.9204 80.9282L44.9287 82.0091Z" fill="#4069B8"/>
<path d="M57.3193 82.0091L59.3111 83.0711L58.1787 84.9251L56.1294 83.7075L56.1884 85.929H53.963L54.0219 83.7075L51.9712 84.9251L50.8594 83.0711L52.8497 82.0091L50.8594 80.9282L51.9712 79.0743L54.0219 80.3107L53.963 78.0703H56.1886L56.1296 80.3107L58.1789 79.0743L59.3113 80.9282L57.3193 82.0091Z" fill="#4069B8"/>
<path d="M69.7101 82.0091L71.7019 83.0711L70.5695 84.9251L68.5203 83.7075L68.5792 85.929H66.3536L66.4125 83.7075L64.3619 84.9251L63.25 83.0711L65.2401 82.0091L63.25 80.9282L64.3619 79.0743L66.4125 80.3107L66.3536 78.0703H68.5792L68.5203 80.3107L70.5695 79.0743L71.7019 80.9282L69.7101 82.0091Z" fill="#4069B8"/>
<path d="M82.0928 82.0091L84.0845 83.0711L82.9521 84.9251L80.9029 83.7075L80.9618 85.929H78.7364L78.7953 83.7075L76.7447 84.9251L75.6328 83.0711L77.6229 82.0091L75.6328 80.9282L76.7447 79.0743L78.7953 80.3107L78.7364 78.0703H80.9618L80.9029 80.3107L82.9521 79.0743L84.0845 80.9282L82.0928 82.0091Z" fill="#4069B8"/>
</svg>
