<svg width="200" height="87" viewBox="0 0 200 87" fill="none" xmlns="http://www.w3.org/2000/svg">
<g clip-path="url(#clip0_143_18504)">
<path d="M119.763 80.9561V69.651H124.223C125.081 69.651 125.811 69.8147 126.415 70.1422C127.018 70.4661 127.478 70.9169 127.795 71.4947C128.115 72.0687 128.275 72.7311 128.275 73.4819C128.275 74.2326 128.113 74.895 127.789 75.4691C127.465 76.0432 126.996 76.4903 126.381 76.8105C125.771 77.1306 125.031 77.2907 124.162 77.2907H121.32V75.3753H123.776C124.236 75.3753 124.615 75.2961 124.913 75.1379C125.215 74.976 125.439 74.7533 125.587 74.47C125.737 74.1829 125.813 73.8536 125.813 73.4819C125.813 73.1065 125.737 72.779 125.587 72.4993C125.439 72.2159 125.215 71.997 124.913 71.8424C124.611 71.6842 124.229 71.6051 123.765 71.6051H122.153V80.9561H119.763ZM129.827 80.9561V69.651H132.218V74.3154H137.07V69.651H139.454V80.9561H137.07V76.2861H132.218V80.9561H129.827ZM148.408 69.651H150.798V76.9926C150.798 77.817 150.601 78.5383 150.207 79.1565C149.817 79.7748 149.271 80.2568 148.568 80.6028C147.865 80.945 147.046 81.1161 146.112 81.1161C145.173 81.1161 144.352 80.945 143.65 80.6028C142.947 80.2568 142.4 79.7748 142.01 79.1565C141.62 78.5383 141.425 77.817 141.425 76.9926V69.651H143.815V76.7884C143.815 77.219 143.909 77.6017 144.097 77.9366C144.288 78.2715 144.557 78.5346 144.903 78.7259C145.249 78.9173 145.652 79.013 146.112 79.013C146.575 79.013 146.978 78.9173 147.32 78.7259C147.666 78.5346 147.933 78.2715 148.121 77.9366C148.312 77.6017 148.408 77.219 148.408 76.7884V69.651ZM152.102 69.651H154.779L157.357 74.5197H157.468L160.046 69.651H162.723L158.599 76.9595V80.9561H156.226V76.9595L152.102 69.651ZM164.823 80.9561H162.262L166.165 69.651H169.245L173.142 80.9561H170.581L167.749 72.2343H167.66L164.823 80.9561ZM164.663 76.5124H170.713V78.3782H164.663V76.5124ZM176.893 69.651V80.9561H174.503V69.651H176.893ZM178.859 80.9561V69.651H183.32C184.177 69.651 184.907 69.8147 185.511 70.1422C186.115 70.4661 186.575 70.9169 186.891 71.4947C187.211 72.0687 187.371 72.7311 187.371 73.4819C187.371 74.2326 187.209 74.895 186.886 75.4691C186.562 76.0432 186.092 76.4903 185.478 76.8105C184.867 77.1306 184.127 77.2907 183.259 77.2907H180.416V75.3753H182.872C183.332 75.3753 183.711 75.2961 184.01 75.1379C184.311 74.976 184.536 74.7533 184.683 74.47C184.834 74.1829 184.909 73.8536 184.909 73.4819C184.909 73.1065 184.834 72.779 184.683 72.4993C184.536 72.2159 184.311 71.997 184.01 71.8424C183.708 71.6842 183.325 71.6051 182.861 71.6051H181.25V80.9561H178.859ZM195.907 69.651H198.297V76.9926C198.297 77.817 198.1 78.5383 197.706 79.1565C197.316 79.7748 196.77 80.2568 196.067 80.6028C195.364 80.945 194.545 81.1161 193.61 81.1161C192.672 81.1161 191.851 80.945 191.148 80.6028C190.446 80.2568 189.899 79.7748 189.509 79.1565C189.119 78.5383 188.924 77.817 188.924 76.9926V69.651H191.314V76.7884C191.314 77.219 191.408 77.6017 191.596 77.9366C191.787 78.2715 192.056 78.5346 192.401 78.7259C192.747 78.9173 193.15 79.013 193.61 79.013C194.074 79.013 194.477 78.9173 194.819 78.7259C195.165 78.5346 195.432 78.2715 195.62 77.9366C195.811 77.6017 195.907 77.219 195.907 76.7884V69.651Z" fill="#4069B8"/>
<path d="M179.695 47.6349L172.621 45.2793V66.4795H198.166V26.9582L139.085 6.93585V19.2372L191.354 31.8002V59.3337H179.695V47.6349Z" fill="#4069B8"/>
<path d="M138.954 66.4794V23.2939L146.837 25.251L162.838 50.6926L163.073 29.9479L170.132 31.644V66.4794H163.073L146.837 40.3855V66.4794H138.954Z" fill="#4BC2F7"/>
<path fill-rule="evenodd" clip-rule="evenodd" d="M108.955 19.1729C108.889 18.482 109.501 17.919 110.184 18.0417L137.251 22.9013V41.4841L116.243 41.2742C113.292 41.2448 110.839 38.9917 110.56 36.0536L108.955 19.1729ZM124.02 21.069L129.26 22.5085V40.6988H124.02V21.069ZM121.4 20.8073L119.828 20.2838V40.6988H121.4V20.8073Z" fill="#4BC2F7"/>
<path d="M48.7773 49.7939L15.3353 48.7931C13.392 48.7349 11.8618 50.4359 12.1246 52.3622L12.8855 57.9405C13.09 59.4397 14.3328 60.5808 15.8439 60.6569L46.077 62.1791C47.4181 62.2466 48.6541 61.4553 49.1543 60.2092L51.6024 54.1095C52.4169 52.08 50.9632 49.8593 48.7773 49.7939Z" fill="#4BC2F7"/>
<path fill-rule="evenodd" clip-rule="evenodd" d="M137.644 6.96557V18.5037C137.644 18.8227 137.362 19.066 137.046 19.0209L106.222 14.622C105.882 14.5735 105.588 14.8597 105.627 15.201L108.904 43.6522C108.933 43.9104 109.148 44.1078 109.407 44.1162L140.695 45.132C140.978 45.1412 141.202 45.3731 141.202 45.656V65.9552C141.202 66.2448 140.968 66.4795 140.678 66.4795H119.349C119.096 66.4795 118.878 66.661 118.833 66.9105L115.835 83.51C115.795 83.7334 115.615 83.9054 115.39 83.9362L112.12 84.3846C111.248 75.0276 105.295 67.7881 98.0824 67.7881C90.2687 67.7881 83.9344 76.2837 83.9344 86.7635C83.9344 86.9386 83.9362 87.1131 83.9397 87.287H50.5295L2.1965 82.6144C1.96107 82.5917 1.77004 82.4141 1.7302 82.1809L0.00749828 72.1012C-0.0200956 71.9397 0.0293593 71.7747 0.141182 71.655L1.63982 70.0509C1.74039 69.9433 1.79103 69.7983 1.77934 69.6514L0.888772 58.4669C0.883454 58.4002 0.890987 58.333 0.910964 58.269L6.61362 40.0133C6.63414 39.9477 6.66738 39.8867 6.71146 39.8338L11.7069 33.8455C11.8181 33.7121 11.8561 33.5324 11.8084 33.3655L11.1876 31.1951C11.1331 31.0045 11.1908 30.7994 11.3367 30.6652L15.8528 26.5099C15.9912 26.3825 16.1873 26.3391 16.3666 26.396L18.678 27.1307C18.8523 27.1861 19.0429 27.1467 19.1808 27.0267L37.1288 11.419C37.1546 11.3966 37.1825 11.3767 37.2122 11.3597C52.19 2.79539 70.3176 0.217892 77.5154 0H106.412C106.448 0 106.484 0.00374571 106.52 0.0111773L137.228 6.45583C137.47 6.50677 137.644 6.71754 137.644 6.96557ZM107.959 84.9311L88.1333 87.2256C88.13 87.0723 88.1284 86.9183 88.1284 86.7635C88.1284 82.3376 89.4714 78.4938 91.4405 75.8528C93.4094 73.2121 95.8022 71.9821 98.0824 71.9821C100.362 71.9821 102.755 73.2121 104.724 75.8528C106.416 78.1221 107.646 81.2794 107.959 84.9311ZM52.0987 48.1454L12.8086 46.8408C10.8783 46.7767 9.34661 48.4513 9.58228 50.3683L10.6467 59.0272C10.8325 60.5381 12.0734 61.6991 13.5933 61.784L48.4543 63.7315C49.8414 63.809 51.1151 62.9673 51.5877 61.6609L54.9523 52.3591C55.679 50.3499 54.2341 48.2163 52.0987 48.1454ZM99.8879 17.0413L99.4191 34.8358C99.4041 35.4039 98.9393 35.8567 98.371 35.8567H86.5004L86.6395 34.5561C86.9879 31.2992 84.0873 28.6334 80.8714 29.2548L76.9982 30.3321L82.8761 16.601C83.0412 16.2153 83.4204 15.9652 83.84 15.9652H98.8397C99.4296 15.9652 99.9034 16.4516 99.8879 17.0413ZM37.7615 14.1335C37.6322 14.1335 37.5074 14.1813 37.4111 14.2678L12.5091 36.6441C12.1515 36.9654 12.3788 37.5583 12.8595 37.5583H66.4422C66.6446 37.5583 66.8288 37.4419 66.9157 37.2591L77.5523 14.8828C77.7176 14.5349 77.464 14.1335 77.0788 14.1335H37.7615ZM61.1406 80.0148L69.3935 43.709L58.3014 71.3474C56.3742 76.1493 51.916 79.4087 46.8368 79.8509L41.7729 79.8128L3.63167 79.3044L53.6661 84.2773L56.0003 84.3831C58.0484 84.476 59.922 83.2357 60.6365 81.314L61.1197 80.0146L61.1406 80.0148ZM93.4807 42.1387C93.2982 42.1387 93.1715 42.3205 93.2348 42.4917L94.0084 44.5847C94.0465 44.6876 94.1446 44.756 94.2543 44.756H100.035C100.135 44.756 100.226 44.6993 100.271 44.6097L101.302 42.5167C101.388 42.3425 101.261 42.1387 101.067 42.1387H93.4807Z" fill="#4BC2F7"/>
</g>
<defs>
<clipPath id="clip0_143_18504">
<rect width="200" height="87" fill="white"/>
</clipPath>
</defs>
</svg>