<svg width="24" height="24" viewBox="0 0 24 24" fill="none" xmlns="http://www.w3.org/2000/svg">
<g clip-path="url(#clip0_660_192490)">
<rect width="24" height="24" rx="12" fill="#4BC2F7"/>
<path fill-rule="evenodd" clip-rule="evenodd" d="M8.72682 8.21429C8.72682 6.43908 10.1923 5 12 5C13.8077 5 15.2732 6.43908 15.2732 8.21429C15.2732 9.98949 13.8077 11.4286 12 11.4286C10.1923 11.4286 8.72682 9.98949 8.72682 8.21429Z" fill="white"/>
<path fill-rule="evenodd" clip-rule="evenodd" d="M6.00008 18.2895C6.05634 15.0826 8.72099 12.5 12 12.5C15.2791 12.5 17.9438 15.0827 17.9999 18.2898C18.0036 18.5024 17.8789 18.6971 17.682 18.7859C15.9516 19.5656 14.0268 20 12.0002 20C9.97344 20 8.0485 19.5655 6.318 18.7856C6.12112 18.6969 5.99635 18.5022 6.00008 18.2895Z" fill="white"/>
</g>
<defs>
<clipPath id="clip0_660_192490">
<rect width="24" height="24" rx="12" fill="white"/>
</clipPath>
</defs>
</svg>
