<svg width="60" height="60" viewBox="0 0 60 60" fill="none" xmlns="http://www.w3.org/2000/svg">
<path d="M38.564 60H21.436C9.59726 60 0 50.4028 0 38.5641V21.436C0 9.59725 9.59726 0 21.436 0H38.564C50.4027 0 60 9.59725 60 21.436V38.5641C60 50.4028 50.4027 60 38.564 60Z" fill="#4069B8"/>
<path d="M33.374 20.9453L28.3828 36.5172L49.6407 43.3325C50.7007 41.2963 51.3007 38.9824 51.3007 36.528V26.6911L33.374 20.9453Z" fill="white"/>
<path d="M34.0078 18.9654L51.3012 24.5084V23.4333C51.3012 15.5366 45.0986 9.08861 37.2997 8.69531L34.0078 18.9654Z" fill="#B2CFF9"/>
<path d="M27.7486 38.4922L23.6484 51.2846H36.5426C41.4732 51.2846 45.8383 48.866 48.5182 45.1511L27.7486 38.4922Z" fill="#B2CFF9"/>
<path d="M29.7046 17.5906L32.5608 8.67969H23.4504C19.6728 8.67969 16.2275 10.0997 13.6172 12.4342L29.7046 17.5906Z" fill="white"/>
<path d="M19.1148 50.6338L23.449 37.1117L8.69531 32.3828V36.5252C8.69519 43.1655 13.0816 48.7812 19.1148 50.6338Z" fill="white"/>
<path d="M24.0823 35.1383L29.0734 19.5664L12.0237 14.1016C9.94367 16.645 8.69531 19.8949 8.69531 23.4369V30.2064L24.0823 35.1383Z" fill="#B2CFF9"/>
<path d="M39.1917 28.7148H39.1906C39.7189 27.4952 40.0132 26.1508 40.0132 24.737C40.0132 19.2041 35.5278 14.7188 29.9949 14.7188C24.4619 14.7188 19.9766 19.2041 19.9766 24.737C19.9766 26.1508 20.2709 27.4952 20.7992 28.7148H20.7979L20.8064 28.731C21.0169 29.2144 21.265 29.6773 21.5458 30.1175L29.1024 42.711C29.2781 43.0406 29.6213 43.2464 29.9947 43.2464C30.3682 43.2464 30.7114 43.0406 30.8871 42.711L38.4429 30.1189C38.7245 29.6778 38.9732 29.2138 39.1841 28.7292L39.1917 28.7148Z" fill="#FE4748"/>
<path d="M31.3397 27.6678C33.1177 26.9313 33.9621 24.8928 33.2256 23.1148C32.4891 21.3368 30.4506 20.4924 28.6726 21.2289C26.8945 21.9654 26.0502 24.0039 26.7867 25.7819C27.5232 27.56 29.5616 28.4043 31.3397 27.6678Z" fill="white"/>
</svg>
