<svg width="600" height="179" viewBox="0 0 600 179" fill="none" xmlns="http://www.w3.org/2000/svg">
<path d="M0 -1H600V161C600 170.941 591.941 179 582 179H18C8.05886 179 0 170.941 0 161V-1Z" fill="url(#paint0_linear_584_245606)"/>
<path d="M550.329 68.4453H50.0391V131.036H550.329V68.4453Z" fill="#0F2731"/>
<path d="M50.0288 131.039L32.5625 140.537C35.0493 143.231 39.098 145.002 43.7007 145.002H556.277C560.956 145.002 565.078 143.18 567.552 140.41L550.32 131.039H50.0288Z" fill="#2D7494"/>
<path d="M50.032 68.4486H550.322V68.4004L568.612 57.0546C566.404 53.4843 561.734 51 556.279 51H43.7027C38.3333 51 33.7332 53.413 31.4824 56.8949L50.0306 68.4014V68.4486H50.032Z" fill="#2D7494"/>
<path d="M31.4905 56.8984C30.5681 58.327 30 59.9152 30 61.621V68.4532V131.044V134.389C30 136.69 30.9678 138.803 32.5725 140.542L50.0388 131.044V68.4532V68.4049L31.4905 56.8984Z" fill="#1E4E63"/>
<path d="M568.622 57.0469L550.332 68.3926V68.4409V131.032L567.563 140.402C569.093 138.69 570 136.617 570 134.377V131.032V68.4409V61.6087C570 59.9692 569.48 58.4342 568.622 57.0469Z" fill="#1E4E63"/>
<defs>
<linearGradient id="paint0_linear_584_245606" x1="-4.65014e-07" y1="89" x2="604.903" y2="93.7603" gradientUnits="userSpaceOnUse">
<stop stop-color="#3C9BC6"/>
<stop offset="0.47" stop-color="#4BC2F7"/>
<stop offset="1" stop-color="#3C9BC6"/>
</linearGradient>
</defs>
</svg>
