<svg width="24" height="24" viewBox="0 0 24 24" fill="none" xmlns="http://www.w3.org/2000/svg">
<path d="M3.9835 8.223C3.04796 9.32718 2.35132 10.6132 1.9375 12C3.2295 16.338 7.2475 19.5 12.0035 19.5C12.9965 19.5 13.9565 19.362 14.8665 19.105M6.2315 6.228C7.94415 5.09786 9.95158 4.49688 12.0035 4.5C16.7595 4.5 20.7765 7.662 22.0685 11.998C21.3605 14.3673 19.8405 16.4116 17.7755 17.772M6.2315 6.228L3.0035 3M6.2315 6.228L9.8815 9.878M17.7755 17.772L21.0035 21M17.7755 17.772L14.1255 14.122C14.4041 13.8434 14.6251 13.5127 14.7759 13.1486C14.9267 12.7846 15.0043 12.3945 15.0043 12.0005C15.0043 11.6065 14.9267 11.2164 14.7759 10.8524C14.6251 10.4883 14.4041 10.1576 14.1255 9.879C13.8469 9.6004 13.5162 9.3794 13.1521 9.22863C12.7881 9.07785 12.398 9.00025 12.004 9.00025C11.61 9.00025 11.2199 9.07785 10.8559 9.22863C10.4918 9.3794 10.1611 9.6004 9.8825 9.879M14.1245 14.121L9.8835 9.88" stroke="#989BA4" stroke-width="1.5" stroke-linecap="round" stroke-linejoin="round"/>
</svg>
