<svg width="24" height="24" viewBox="0 0 24 24" fill="none" xmlns="http://www.w3.org/2000/svg">
<g clip-path="url(#clip0_874_5200)">
<path d="M15.8005 18.3281H8.19492C8.19492 18.3281 5.51953 20.2082 5.51953 24.0018H8.05924L11.3894 23.2624L15.7758 24.0018H18.4759C18.4759 20.2082 15.8005 18.3281 15.8005 18.3281Z" fill="#FED2A4"/>
<path d="M6.96819 24.0018C6.96819 20.2082 9.64358 18.3281 9.64358 18.3281H8.19492C8.19492 18.3281 5.51953 20.2082 5.51953 24.0018H8.05924H6.96819Z" fill="#FFBD86"/>
<path d="M8.05859 21.6328H14.7188V23.9997H8.05859V21.6328Z" fill="#F59E18"/>
<path d="M18.493 20.0712C17.0276 18.5638 15.7979 18.3281 15.7979 18.3281C15.7979 18.3281 13.6691 19.6294 12.9688 24.0018H15.7731C16.6291 22.2215 17.8333 21.1561 18.4422 20.6981C18.6439 20.5465 18.6688 20.2522 18.493 20.0712Z" fill="#FAB659"/>
<path d="M23.5003 10.0392C23.5003 11.1137 22.6294 11.9847 21.5549 11.9847C20.4804 11.9847 19.6094 11.1137 19.6094 10.0392C19.6094 8.96492 20.4804 8.09375 21.5549 8.09375C22.6294 8.09375 23.5003 8.96492 23.5003 10.0392Z" fill="#FFBD86"/>
<path d="M2.625 7.66931C3.50044 3.29527 7.36298 0 11.9948 0C16.6269 0 20.4894 3.29527 21.3648 7.66931H2.625Z" fill="#B2B0BC"/>
<path d="M12.7192 0.0275086C12.6634 0.0234195 12.6074 0.0197021 12.5513 0.0165423C12.3684 0.0059478 12.185 0.000185869 12.0017 0.000185869C11.9995 0.000185869 11.9972 0 11.9948 0C7.36298 0 3.50044 3.29527 2.625 7.66931H4.07366C4.90301 3.52537 8.41351 0.350362 12.7192 0.0275086Z" fill="#827F98"/>
<path d="M21.5548 9.55679C21.5548 14.8349 17.2763 19.1134 11.998 19.1134C6.71992 19.1134 2.44141 14.8349 2.44141 9.55679C2.44141 8.91108 2.50572 8.28006 2.62765 7.66985C2.62765 7.66985 2.62765 7.66985 2.6282 7.66929C2.67913 7.57859 6.99426 -0.0821748 11.998 4.92104C17.0018 -0.0821748 21.3171 7.57859 21.368 7.66929C21.3686 7.66985 21.3686 7.66985 21.3686 7.66985C21.4905 8.28006 21.5548 8.91108 21.5548 9.55679Z" fill="#FED2A4"/>
<path d="M3.89024 9.55392C3.89024 8.90803 3.95455 8.27719 4.07704 7.66642C4.30938 6.50549 4.7523 5.42057 5.36399 4.45312C3.70642 5.75253 2.65347 7.62181 2.62782 7.66698C2.59957 7.80824 2.57466 7.9508 2.55273 8.09411C2.51649 8.09206 2.47968 8.09057 2.44158 8.09057C1.36707 8.09057 0.496094 8.96174 0.496094 10.0361C0.496094 11.1106 1.36707 11.9815 2.44158 11.9815C2.55217 11.9815 2.65459 11.9719 2.74994 11.954C2.90402 12.5544 3.11536 13.1399 3.38375 13.6971C4.9272 16.9002 8.20444 19.1105 11.9991 19.1105C12.172 19.1105 12.3448 19.1046 12.5177 19.0964C12.5861 19.0927 12.6545 19.0884 12.7225 19.0834C7.7827 18.7132 3.89024 14.5884 3.89024 9.55392Z" fill="#FFBD86"/>
<path d="M11.9959 12.3427C11.5121 12.3427 11.0576 12.1405 10.7497 11.7881C10.6181 11.6373 10.6333 11.4085 10.784 11.2769C10.9346 11.1453 11.1634 11.1608 11.295 11.3113C11.4654 11.5063 11.721 11.6182 11.9959 11.6182C12.271 11.6182 12.5264 11.5063 12.697 11.3113C12.8286 11.1608 13.0574 11.1453 13.208 11.2769C13.3587 11.4085 13.3739 11.6373 13.2423 11.7881C12.9342 12.1405 12.4799 12.3427 11.9959 12.3427Z" fill="#423E4F"/>
<path d="M15.7977 10.8471C15.4199 10.8471 15.065 10.6889 14.824 10.4131C14.6922 10.2625 14.7076 10.0337 14.8582 9.90194C15.0087 9.77034 15.2375 9.78577 15.3693 9.93632C15.4728 10.0547 15.629 10.1227 15.7977 10.1227C15.9665 10.1227 16.1226 10.0547 16.2262 9.93632C16.3578 9.78577 16.5866 9.77034 16.7373 9.90194C16.8879 10.0337 16.9033 10.2625 16.7715 10.4131C16.5304 10.6889 16.1756 10.8471 15.7977 10.8471Z" fill="#423E4F"/>
<path d="M8.19229 10.8471C7.81442 10.8471 7.4596 10.6889 7.21834 10.4131C7.08675 10.2625 7.10217 10.0337 7.25273 9.90194C7.40328 9.77034 7.63209 9.78577 7.76387 9.93632C7.8674 10.0547 8.02353 10.1227 8.19229 10.1227C8.36106 10.1227 8.51719 10.0547 8.62072 9.93632C8.75232 9.78577 8.98112 9.77034 9.13186 9.90194C9.28241 10.0337 9.29784 10.2625 9.16606 10.4131C8.92499 10.6889 8.56998 10.8471 8.19229 10.8471Z" fill="#423E4F"/>
</g>
<defs>
<clipPath id="clip0_874_5200">
<rect width="24" height="24" fill="white"/>
</clipPath>
</defs>
</svg>
