<svg width="32" height="32" viewBox="0 0 32 32" fill="none" xmlns="http://www.w3.org/2000/svg">
<rect width="32" height="32" rx="16" fill="#4BC2F7"/>
<path d="M5.50256 12.5631C5.46839 12.9759 5.77534 13.3383 6.18814 13.3724C6.60094 13.4066 6.96328 13.0997 6.99744 12.6869L5.50256 12.5631ZM25.75 12.625L25.4454 13.3104C25.6875 13.4179 25.9683 13.3899 26.1843 13.2365C26.4003 13.0831 26.5193 12.8271 26.4974 12.5631L25.75 12.625ZM22.6796 10.4396C22.3011 10.2714 21.8579 10.4419 21.6896 10.8204C21.5214 11.1989 21.6919 11.6421 22.0704 11.8104L22.6796 10.4396ZM6.99744 12.6869C7.17292 10.5665 9.69599 6.25 16 6.25V4.75C8.89711 4.75 5.74087 9.68349 5.50256 12.5631L6.99744 12.6869ZM16 6.25C22.304 6.25 24.8271 10.5665 25.0026 12.6869L26.4974 12.5631C26.2591 9.68349 23.1029 4.75 16 4.75V6.25ZM26.0546 11.9396L22.6796 10.4396L22.0704 11.8104L25.4454 13.3104L26.0546 11.9396Z" fill="white"/>
<path d="M26.4974 19.8119C26.5316 19.3991 26.2247 19.0367 25.8119 19.0026C25.3991 18.9684 25.0367 19.2753 25.0026 19.6881L26.4974 19.8119ZM6.25 19.75L6.6221 19.0988C6.38035 18.9607 6.08196 18.9678 5.8471 19.1174C5.61225 19.267 5.47959 19.5344 5.50256 19.8119L6.25 19.75ZM8.5029 21.9012C8.86253 22.1067 9.32067 21.9817 9.52618 21.6221C9.73169 21.2625 9.60674 20.8043 9.2471 20.5988L8.5029 21.9012ZM25.0026 19.6881C24.8307 21.7645 22.3491 25.75 16 25.75V27.25C23.0578 27.25 26.2555 22.7355 26.4974 19.8119L25.0026 19.6881ZM16 25.75C9.65095 25.75 7.16928 21.7645 6.99744 19.6881L5.50256 19.8119C5.74451 22.7355 8.94216 27.25 16 27.25V25.75ZM5.8779 20.4012L8.5029 21.9012L9.2471 20.5988L6.6221 19.0988L5.8779 20.4012Z" fill="white"/>
<path fill-rule="evenodd" clip-rule="evenodd" d="M15.9258 11.0002H13.318C13.0685 10.9922 12.5309 11.2043 12.3763 12.1165C12.2218 13.0287 12.1188 14.4411 12.0866 15.0333H11.833L11.8813 14.1571C11.8813 14.101 11.8499 13.9866 11.7244 13.977C11.5988 13.9674 11.3662 14.005 11.2656 14.025C11.2012 14.021 11.0676 14.0874 11.0483 14.3851C11.029 14.6828 11.008 15.1253 11 15.3094C11.004 15.3694 11.041 15.4894 11.1569 15.4894H12.0504L12.0021 19.3184C12.0101 19.4624 12.0986 19.7649 12.3884 19.8225V20.3026C12.4085 20.3627 12.4922 20.4851 12.6661 20.4947C12.8399 20.5043 13.2778 20.4987 13.475 20.4947C13.5394 20.4787 13.6705 20.4179 13.6802 20.3026C13.6899 20.1874 13.6842 19.9346 13.6802 19.8225H18.0265V20.3026C18.0345 20.3587 18.0917 20.4755 18.2559 20.4947H19.1251C19.1855 20.4907 19.3086 20.4467 19.3183 20.3026V19.8225C19.4471 19.7825 19.7119 19.6257 19.7408 19.3184L19.6563 15.4894H20.6101C20.6584 15.4814 20.7526 15.4342 20.7429 15.3094C20.7332 15.1845 20.7067 14.6092 20.6946 14.3371C20.6785 14.2411 20.5908 14.0418 20.3686 14.013C20.1465 13.9842 20.0024 13.985 19.9582 13.989C19.926 13.997 19.8616 14.0274 19.8616 14.085C19.8616 14.1427 19.8777 14.7332 19.8857 15.0213H19.6322C19.6322 15.0213 19.4752 12.8607 19.3666 12.1165C19.2579 11.3723 19.113 11.1346 18.5335 11.0002H15.9258ZM12.8713 12.3327H18.8474C18.9561 13.2529 19.1517 15.115 19.0647 15.2014H12.6781C12.6298 14.7981 12.7868 13.1209 12.8713 12.3327ZM13.3913 17.4698C13.5749 17.6235 13.6449 18.078 13.657 18.286C13.6449 18.33 13.5893 18.4205 13.4638 18.4301C13.3068 18.4421 12.6549 18.202 12.5221 18.142C12.4158 18.094 12.3732 17.9299 12.3651 17.8539C12.3732 17.7059 12.3965 17.3762 12.4255 17.2418C12.4545 17.1073 12.6147 17.0817 12.6911 17.0857C12.8481 17.1497 13.2078 17.3162 13.3913 17.4698ZM18.0517 18.2865C18.0637 18.0784 18.1338 17.6239 18.3173 17.4703C18.5008 17.3166 18.8606 17.1502 19.0175 17.0862C19.094 17.0822 19.2541 17.1078 19.2831 17.2422C19.3121 17.3766 19.3354 17.7063 19.3435 17.8544C19.3354 17.9304 19.2928 18.0944 19.1865 18.1424C19.0537 18.2024 18.4018 18.4425 18.2448 18.4305C18.1193 18.4209 18.0637 18.3305 18.0517 18.2865ZM17.2434 17.6742H14.527C14.236 17.6742 14.1843 17.8603 14.1557 17.9633L14.1527 17.9743L14.0564 18.4544C14.0274 18.7425 14.3419 18.8545 14.527 18.8745H17.2434C17.5234 18.8361 17.6902 18.6465 17.6661 18.4544C17.6661 18.4544 17.6273 18.224 17.5693 17.9743C17.5212 17.767 17.4005 17.6742 17.2434 17.6742Z" fill="white"/>
</svg>
