<svg width="32" height="32" viewBox="0 0 32 32" fill="none" xmlns="http://www.w3.org/2000/svg">
<path d="M0.5 16C0.5 7.43959 7.43959 0.5 16 0.5C24.5604 0.5 31.5 7.43959 31.5 16C31.5 24.5604 24.5604 31.5 16 31.5C7.43959 31.5 0.5 24.5604 0.5 16Z" fill="white"/>
<path d="M0.5 16C0.5 7.43959 7.43959 0.5 16 0.5C24.5604 0.5 31.5 7.43959 31.5 16C31.5 24.5604 24.5604 31.5 16 31.5C7.43959 31.5 0.5 24.5604 0.5 16Z" stroke="#4BC2F7"/>
<path d="M16.75 11.75C16.75 11.3358 16.4142 11 16 11C15.5858 11 15.25 11.3358 15.25 11.75V15.25H11.75C11.3358 15.25 11 15.5858 11 16C11 16.4142 11.3358 16.75 11.75 16.75L15.25 16.75V20.25C15.25 20.6642 15.5858 21 16 21C16.4142 21 16.75 20.6642 16.75 20.25V16.75L20.25 16.75C20.6642 16.75 21 16.4142 21 16C21 15.5858 20.6642 15.25 20.25 15.25H16.75V11.75Z" fill="#4BC2F7"/>
</svg>
