<svg width="24" height="24" viewBox="0 0 24 24" fill="none" xmlns="http://www.w3.org/2000/svg">
<g clip-path="url(#clip0_874_5137)">
<g clip-path="url(#clip1_874_5137)">
<path d="M5.90858 16.6953C5.49233 17.1777 5.04032 17.7968 4.64821 18.552C4.25563 19.3068 3.92291 20.1978 3.74324 21.2239C3.59741 22.0598 3.55344 22.985 3.6621 24.0001H5.90854L7.66897 21.5856L5.90858 16.6953Z" fill="#EFEDEE"/>
<path d="M20.2541 21.224C19.8966 19.1803 18.9302 17.6736 18.0995 16.7075L18.0963 16.6953L18.0942 16.7013C18.094 16.7011 18.0938 16.7008 18.0936 16.7007V16.703L16.3359 21.5857L18.0937 23.9964V24.0001H20.3353C20.4439 22.9851 20.4 22.0598 20.2541 21.224Z" fill="#EFEDEE"/>
<path d="M5.90641 16.6953C5.62506 17.0214 5.32745 17.4101 5.04297 17.8608C5.23544 18.0216 5.43395 18.1758 5.63833 18.3228C5.99411 18.5787 6.36311 18.8112 6.74327 19.0201L5.90641 16.6953Z" fill="#D4D2D3"/>
<path d="M18.0908 16.6953C18.3721 17.0214 18.6697 17.4101 18.9542 17.8608C18.7617 18.0216 18.5632 18.1758 18.3588 18.3228C18.0031 18.5787 17.6341 18.8112 17.2539 19.0201L18.0908 16.6953Z" fill="#D4D2D3"/>
<path d="M18.0878 16.6972C18.0888 16.6982 18.0897 16.6997 18.0907 16.7006V24.0001H5.90625V16.6953L18.0878 16.6972Z" fill="#6FCEF9"/>
<path d="M5.90625 16.6953V18.5089C7.69748 19.7173 9.79641 20.3547 11.9985 20.3547C14.2005 20.3547 16.2995 19.7173 18.0907 18.509V16.7006C18.0898 16.6996 18.0888 16.6982 18.0878 16.6972L5.90625 16.6953Z" fill="#00A5C7"/>
<path d="M7.29297 16.6953L7.37359 17.4477C7.38953 17.5983 7.4972 18.4004 8.02937 19.4208C8.72762 20.7594 9.86102 21.8855 11.3063 22.6779L12.0026 23.0594L12.699 22.6779C14.1443 21.8855 15.2777 20.7594 15.9759 19.4208C16.5081 18.4004 16.6153 17.5983 16.6317 17.4477L16.7118 16.6972L7.29297 16.6953ZM12.0026 21.4074C9.08303 19.8076 8.81406 17.2936 8.81406 17.2936H15.1912C15.1912 17.2936 14.9218 19.8076 12.0026 21.4074Z" fill="#3C9BC6"/>
<path d="M13.5822 20.2426C14.3582 20.132 15.114 19.9395 15.8402 19.6685C15.887 19.5867 15.9324 19.5041 15.9759 19.4206C16.5081 18.4002 16.6153 17.5981 16.6317 17.4475L16.7118 16.697L12.0434 16.6961L7.29297 16.6953L7.37355 17.4475C7.38948 17.5981 7.49716 18.4002 8.02933 19.4206C8.07311 19.5046 8.11867 19.5876 8.16583 19.6699C8.89178 19.9405 9.64745 20.1326 10.4232 20.243C8.977 18.8143 8.81397 17.2934 8.81397 17.2934H15.1911C15.1911 17.2934 15.0279 18.814 13.5822 20.2426Z" fill="#2D7494"/>
<path d="M15.7147 16.9531C15.7147 16.9531 15.4007 19.882 11.9999 21.7458C8.59852 19.8819 8.28516 16.9531 8.28516 16.9531H15.7147Z" fill="#EFEDEE"/>
<path d="M14.0598 20.1624C15.5411 18.5678 15.7146 16.9531 15.7146 16.9531H8.28516C8.28516 16.9531 8.45841 18.5683 9.94031 20.163C10.6117 20.2892 11.2998 20.3536 11.9984 20.3536C12.6982 20.3537 13.3875 20.289 14.0598 20.1624Z" fill="#D4D2D3"/>
<path d="M1.77974 2.79605C1.86759 2.32186 2.28219 1.97775 2.76444 1.98295C5.23527 2.00939 6.82705 0 11.9995 0C17.791 0 22.5028 4.53506 22.5028 10.1094L21.0963 11.3651L11.997 12.7729L2.95209 11.657L1.9791 10.1094C1.21223 6.9353 1.52765 4.15673 1.77974 2.79605Z" fill="#3A484A"/>
<path d="M20.5028 11.0283C20.5028 5.34455 16.1043 0.651797 10.4766 0.0628125C10.9485 0.0226406 11.4549 0 12.0016 0C17.7931 0 22.5049 4.53506 22.5049 10.1094L21.0984 11.3651L19.9358 11.5449L20.5028 11.0283Z" fill="#313D40"/>
<path d="M2.83109 10.6859L2.83147 10.6862V10.6861L2.91645 10.6616C2.91645 10.6616 5.75909 9.94419 5.75909 6.64062C5.75909 6.64062 8.39342 7.3167 12.0018 7.3167C15.6102 7.3167 18.2445 6.64062 18.2445 6.64062C18.2445 9.94419 21.0872 10.6616 21.0872 10.6616L21.1719 10.6943L21.4764 11.6911L20.7903 12.6879V12.6879C19.6392 16.2881 16.1403 18.9066 12.0018 18.9066C7.86331 18.9066 4.36466 16.2882 3.21359 12.6878L2.28125 11.897L2.83109 10.6859Z" fill="#FFDDCF"/>
<path d="M2.83275 10.7205C2.88145 11.4006 3.01148 12.0591 3.21253 12.6879C3.11545 12.702 3.01631 12.7097 2.91534 12.7097C1.7842 12.7097 0.867188 11.7928 0.867188 10.6616C0.867188 9.6038 1.66913 8.73347 2.69817 8.625C2.70998 9.65236 2.82994 10.6859 2.82994 10.6859L2.83275 10.7205Z" fill="#FFCBBE"/>
<path d="M21.1731 10.6859C21.1731 10.6859 21.293 9.65241 21.3048 8.625C22.3339 8.73347 23.1358 9.6038 23.1358 10.6616C23.1358 11.7927 22.2188 12.7097 21.0877 12.7097C20.9868 12.7097 20.8878 12.702 20.7909 12.6879V12.6879C19.7175 16.0448 16.603 18.5478 12.832 18.8708C16.0649 17.3756 18.5527 14.6374 19.6185 11.3043C19.7447 10.9096 19.851 10.5067 19.9364 10.0965C20.5465 10.5249 21.0878 10.6615 21.0878 10.6615L21.1724 10.6942L21.1731 10.6859Z" fill="#FFCBBE"/>
<path d="M16.9911 12.1326C17.1911 12.1326 17.3532 11.9705 17.3532 11.7705V10.7997C17.3532 10.5996 17.1911 10.4375 16.9911 10.4375C16.791 10.4375 16.6289 10.5996 16.6289 10.7997V11.7705C16.6289 11.9705 16.791 12.1326 16.9911 12.1326Z" fill="#3B484A"/>
<path d="M7.00669 12.1326C7.20675 12.1326 7.36884 11.9705 7.36884 11.7705V10.7997C7.36884 10.5996 7.20675 10.4375 7.00669 10.4375C6.80662 10.4375 6.64453 10.5996 6.64453 10.7997V11.7705C6.64453 11.9705 6.80667 12.1326 7.00669 12.1326Z" fill="#3B484A"/>
<path d="M12.0013 13.5023C12.4538 13.5023 12.8787 13.3131 13.167 12.9834C13.2987 12.8328 13.2833 12.604 13.1327 12.4723C12.9822 12.3407 12.7533 12.356 12.6217 12.5066C12.471 12.679 12.2448 12.778 12.0013 12.778C11.7578 12.778 11.5316 12.6791 11.3809 12.5066C11.2493 12.356 11.0205 12.3407 10.8699 12.4723C10.7193 12.604 10.7039 12.8328 10.8356 12.9834C11.1238 13.3131 11.5487 13.5023 12.0013 13.5023Z" fill="#3B484A"/>
</g>
</g>
<defs>
<clipPath id="clip0_874_5137">
<rect width="24" height="24" fill="white"/>
</clipPath>
<clipPath id="clip1_874_5137">
<rect width="24" height="24" fill="white"/>
</clipPath>
</defs>
</svg>
