<svg width="24" height="24" viewBox="0 0 24 24" fill="none" xmlns="http://www.w3.org/2000/svg">
<path d="M9.84625 0.0554256C5.00245 1.13243 1.35996 5.76863 1.35996 11.3248C1.35996 14.8184 -0.478385 18.4673 1.44099 20.76C2.40109 21.72 6.8254 22.08 7.32109 22.08L12.0009 20.8695V11.3248V0.684448C11.4372 0.120762 10.6244 -0.117645 9.84625 0.0554256Z" fill="#4C5659"/>
<path d="M14.1546 0.0554198C13.3765 -0.117651 12.5637 0.120804 12 0.68449V11.3248V20.8695L15.72 22.08C16.2157 22.08 22.0713 22.0225 23.04 21C25.2 18.72 22.6409 14.8184 22.6409 11.3248C22.6409 5.76858 18.9984 1.13243 14.1546 0.0554198Z" fill="#676F72"/>
<path d="M16.7269 22.1612C16.5604 21.4327 16.2321 20.7657 15.7824 20.2012C15.0845 19.3248 14.0943 18.695 12.9624 18.4641C12.6512 18.4005 12.3291 18.3672 11.9995 18.3672C11.9995 18.3672 11.9994 18.3672 11.9994 18.3672C10.4714 18.3672 9.10634 19.0839 8.21651 20.2012C7.54871 21.0397 7.14844 22.1039 7.14844 23.2608V24.0006H11.9995H11.9995H16.8505V23.2607C16.8505 22.8828 16.8078 22.5147 16.7269 22.1612Z" fill="#3C9BC6"/>
<path d="M11.6026 23.5964C11.2273 22.3566 11.0371 21.0714 11.0371 19.7763V18.4688C9.90501 18.6996 8.91444 19.3286 8.21646 20.205C8.05696 20.4053 7.91325 20.6188 7.7861 20.843C7.38086 21.5575 7.14844 22.384 7.14844 23.2645V24.0044H8.30314H11.7262L11.6026 23.5964Z" fill="#2D7494"/>
<path d="M8.21651 20.2008C7.54871 21.0393 7.14844 22.1035 7.14844 23.2603V24.0002H10.2547C9.83962 22.6292 9.62874 21.2046 9.62874 19.7721V18.9922C9.08466 19.301 8.60524 19.7127 8.21651 20.2008Z" fill="#DBF3FD"/>
<path d="M9.62953 19.7721V18.9922C9.08545 19.301 8.60603 19.7127 8.21735 20.2008C8.15872 20.2744 8.1016 20.3504 8.04722 20.4275C7.86285 20.6888 7.88516 21.0429 8.09247 21.2864L8.82758 22.15L8.62694 22.6729C8.48284 23.0485 8.68035 23.4686 9.06155 23.5972L10.2555 24.0002C9.84046 22.6292 9.62953 21.2046 9.62953 19.7721Z" fill="#4BC2F7"/>
<path d="M15.7843 20.2008C16.4521 21.0393 16.8523 22.1035 16.8523 23.2603V24.0002H13.7461C14.1611 22.6292 14.372 21.2046 14.372 19.7721V18.9922C14.9161 19.301 15.3955 19.7127 15.7843 20.2008Z" fill="#DBF3FD"/>
<path d="M14.372 19.7721V18.9922C14.9161 19.301 15.3955 19.7127 15.7843 20.2008C15.8429 20.2744 15.8994 20.3498 15.9538 20.4269C16.1382 20.6882 16.1164 21.0429 15.9091 21.2864L15.174 22.15L15.3747 22.6729C15.5188 23.0486 15.3213 23.4686 14.9401 23.5973L13.7461 24.0002C14.1611 22.6292 14.372 21.2046 14.372 19.7721Z" fill="#4BC2F7"/>
<path d="M14.3704 18.9943L11.9997 17.5547L9.62916 18.9943C9.62858 18.9991 9.62916 19.5443 9.6294 19.7519C9.62945 19.8043 9.63543 19.8568 9.65137 19.9067C9.96158 20.8783 11.2683 21.2668 11.9997 20.3587C12.7311 21.2668 14.038 20.8783 14.3482 19.9067C14.3641 19.8568 14.3701 19.8043 14.3701 19.7519C14.3704 19.5443 14.371 18.9991 14.3704 18.9943Z" fill="#EFEDEE"/>
<path d="M21.0773 8.03906H2.92514C1.71519 8.03906 0.734375 9.01992 0.734375 10.2298C0.734375 11.4397 1.71524 12.4206 2.92514 12.4206H21.0773C22.2872 12.4206 23.2681 11.4397 23.2681 10.2298C23.2681 9.01992 22.2872 8.03906 21.0773 8.03906Z" fill="#FFCBBE"/>
<path d="M13.5134 1.28224C13.0217 1.19981 12.5169 1.15625 12.0019 1.15625C11.4868 1.15625 10.9821 1.19981 10.4904 1.28224C6.19741 2.002 2.92578 5.73479 2.92578 10.2324C2.92578 14.7299 6.19741 18.4627 10.4904 19.1824C10.9821 19.2649 11.4868 19.3084 12.0019 19.3084C12.5169 19.3084 13.0218 19.2649 13.5134 19.1824C17.8064 18.4627 21.0779 14.7299 21.0779 10.2324C21.0779 5.73484 17.8064 2.002 13.5134 1.28224Z" fill="#FFDDCF"/>
<path d="M5.9365 10.245C5.9365 5.73943 9.21397 1.99992 13.5134 1.28224C13.0217 1.19981 12.5169 1.15625 12.0019 1.15625C11.4868 1.15625 10.9821 1.19981 10.4904 1.28224C6.19741 2.002 2.92578 5.73479 2.92578 10.2324C2.92578 14.7299 6.19741 18.4627 10.4904 19.1824C10.9821 19.2649 11.4868 19.3084 12.0019 19.3084C12.5169 19.3084 13.0218 19.2649 13.5134 19.1824C9.21397 18.4647 5.9365 14.7503 5.9365 10.245Z" fill="#FFCBBE"/>
<path d="M8.09264 10.7109C7.89258 10.7109 7.73047 10.873 7.73047 11.0731V11.8242C7.73047 12.0243 7.89258 12.1864 8.09264 12.1864C8.29271 12.1864 8.45481 12.0243 8.45481 11.8242V11.0731C8.45481 10.873 8.29266 10.7109 8.09264 10.7109Z" fill="#313D40"/>
<path d="M15.909 10.7109C15.709 10.7109 15.5469 10.873 15.5469 11.0731V11.8242C15.5469 12.0243 15.709 12.1864 15.909 12.1864C16.1091 12.1864 16.2712 12.0243 16.2712 11.8242V11.0731C16.2712 10.873 16.1091 10.7109 15.909 10.7109Z" fill="#313D40"/>
<path d="M13.2706 11.5266C13.1197 11.3952 12.891 11.4109 12.7596 11.5618C12.5684 11.7812 12.2923 11.907 12.0021 11.907C11.7119 11.907 11.4358 11.7812 11.2446 11.5618C11.1131 11.411 10.8845 11.3953 10.7336 11.5266C10.5828 11.6581 10.5671 11.8868 10.6985 12.0377C11.0273 12.4149 11.5024 12.6314 12.0021 12.6314C12.5017 12.6314 12.9769 12.415 13.3057 12.0377C13.4371 11.8868 13.4214 11.658 13.2706 11.5266Z" fill="#313D40"/>
<path d="M21.2646 7.92864C20.3497 4.23824 17.3367 1.44768 13.5886 0.819331C13.0642 0.731444 12.5319 0.6875 11.9995 0.6875C11.4671 0.6875 10.9347 0.731444 10.4104 0.819331C6.66231 1.44773 3.64927 4.23824 2.73438 7.92864L3.19004 8.04159C3.0161 8.74319 2.92338 9.47691 2.92338 10.2323C4.42683 10.2312 5.89779 9.92137 7.25898 9.32697C7.83609 9.07499 8.39359 8.77217 8.92526 8.41946C10.1647 7.59737 11.2066 6.54727 11.9994 5.3309C12.7923 6.54727 13.8342 7.59733 15.0736 8.41946C16.8594 9.60396 18.9347 10.2307 21.0755 10.2322C21.0755 9.47681 20.9828 8.74315 20.8088 8.04154L21.2646 7.92864Z" fill="#676F72"/>
<path d="M10.4104 0.819379C6.66231 1.44777 3.64927 4.23829 2.73438 7.92869L3.19004 8.04164C3.0161 8.74324 2.92338 9.47696 2.92338 10.2324C4.42683 10.2312 5.89779 9.92142 7.25898 9.32702C7.95691 6.1609 9.53685 3.15008 11.9994 0.6875C11.4671 0.6875 10.9347 0.731444 10.4104 0.819379Z" fill="#4C5659"/>
</svg>
