<svg width="48" height="28" viewBox="0 0 48 28" fill="none" xmlns="http://www.w3.org/2000/svg">
  <rect width="48" height="28" rx="6" fill="#F4F4F4"/>
  <path d="M16 6H30C33.3137 6 36 8.68629 36 12V16C36 19.3137 33.3137 22 30 22H18C14.6863 22 12 19.3137 12 16V10C12 7.79086 13.7909 6 16 6Z" fill="#007B9F"/>
  <path d="M18 6H30C33.3137 6 36 8.68629 36 12V16C36 19.3137 33.3137 22 30 22H18C14.6863 22 12 19.3137 12 16V12C12 8.68629 14.6863 6 18 6Z" fill="#009975" opacity="0.9"/>
  <text x="24" y="16" text-anchor="middle" fill="white" font-size="7" font-family="Arial" font-weight="bold">Union</text>
  <text x="24" y="20" text-anchor="middle" fill="white" font-size="7" font-family="Arial" font-weight="bold">Pay</text>
</svg>
