<svg width="60" height="60" viewBox="0 0 60 60" fill="none" xmlns="http://www.w3.org/2000/svg">
<rect x="0.5" y="0.5" width="59" height="59" rx="11.5" fill="#F5F7FB"/>
<rect x="0.5" y="0.5" width="59" height="59" rx="11.5" stroke="#D9E1F1"/>
<path d="M17.7343 33.7656H16V35.8833C16 36.0705 16.0702 36.2501 16.1953 36.3825C16.3203 36.5149 16.4899 36.5892 16.6667 36.5892H17.9146C17.509 35.7089 17.4443 34.6957 17.7343 33.7656Z" fill="#4069B8"/>
<path d="M41.5544 34.9421C41.5549 35.513 41.4321 36.0764 41.1953 36.5892H43.3321C43.509 36.5892 43.6785 36.5149 43.8036 36.3825C43.9286 36.2501 43.9988 36.0705 43.9988 35.8833V33.7656H41.3756C41.4941 34.1452 41.5544 34.5424 41.5544 34.9421Z" fill="#4069B8"/>
<path d="M37.9983 31.8828C37.4269 31.8828 36.8684 32.0622 36.3933 32.3983C35.9182 32.7344 35.5479 33.2122 35.3293 33.7711C35.1106 34.3301 35.0534 34.9451 35.1649 35.5385C35.2764 36.1318 35.5515 36.6769 35.9555 37.1047C36.3595 37.5325 36.8743 37.8238 37.4347 37.9418C37.9951 38.0599 38.5759 37.9993 39.1038 37.7678C39.6317 37.5362 40.0829 37.1442 40.4003 36.6411C40.7177 36.1381 40.8872 35.5467 40.8872 34.9417C40.8863 34.1307 40.5816 33.3532 40.0401 32.7798C39.4985 32.2063 38.7642 31.8837 37.9983 31.8828ZM37.9983 36.3535C37.7346 36.3535 37.4768 36.2707 37.2575 36.1156C37.0382 35.9605 36.8673 35.74 36.7664 35.482C36.6655 35.224 36.6391 34.9401 36.6906 34.6663C36.742 34.3924 36.869 34.1409 37.0555 33.9434C37.2419 33.746 37.4795 33.6115 37.7381 33.557C37.9968 33.5026 38.2649 33.5305 38.5085 33.6374C38.7521 33.7442 38.9604 33.9252 39.1069 34.1574C39.2534 34.3895 39.3316 34.6625 39.3316 34.9417C39.3316 35.3161 39.1911 35.6752 38.9411 35.94C38.691 36.2048 38.3519 36.3535 37.9983 36.3535Z" fill="#4069B8"/>
<path d="M21.1115 31.8828C20.5402 31.8828 19.9816 32.0622 19.5066 32.3983C19.0315 32.7344 18.6612 33.2122 18.4426 33.7711C18.2239 34.3301 18.1667 34.9451 18.2782 35.5385C18.3896 36.1318 18.6648 36.6769 19.0688 37.1047C19.4728 37.5325 19.9876 37.8238 20.548 37.9418C21.1083 38.0599 21.6892 37.9993 22.2171 37.7678C22.7449 37.5362 23.1961 37.1442 23.5136 36.6411C23.831 36.1381 24.0004 35.5467 24.0004 34.9417C23.9996 34.1307 23.6949 33.3532 23.1533 32.7798C22.6118 32.2063 21.8775 31.8837 21.1115 31.8828ZM21.1115 36.3829C20.8423 36.3829 20.5792 36.2984 20.3554 36.14C20.1315 35.9817 19.9571 35.7566 19.854 35.4932C19.751 35.2299 19.7241 34.9401 19.7766 34.6605C19.8291 34.381 19.9587 34.1242 20.1491 33.9226C20.3394 33.7211 20.582 33.5838 20.846 33.5282C21.11 33.4726 21.3837 33.5011 21.6324 33.6102C21.8811 33.7193 22.0937 33.904 22.2433 34.141C22.3928 34.378 22.4727 34.6567 22.4727 34.9417C22.4727 35.3239 22.3293 35.6905 22.074 35.9608C21.8187 36.2311 21.4725 36.3829 21.1115 36.3829Z" fill="#4069B8"/>
<path d="M34.6203 33.7656H24.485C24.775 34.6957 24.7103 35.7089 24.3047 36.5892H34.8006C34.395 35.7089 34.3303 34.6957 34.6203 33.7656Z" fill="#4069B8"/>
<path d="M42.4634 29.1068L39.2457 27.6472L36.2839 22.943C36.1015 22.6527 35.8541 22.4146 35.5637 22.2501C35.2734 22.0856 34.9491 21.9996 34.6198 22H18C17.4697 22.0006 16.9614 22.2239 16.5864 22.6209C16.2115 23.018 16.0006 23.5562 16 24.1177V32.3532H18.5328C18.8643 31.9816 19.264 31.6856 19.7073 31.4833C20.1507 31.281 20.6284 31.1767 21.1111 31.1767C21.5939 31.1767 22.0715 31.281 22.5149 31.4833C22.9582 31.6856 23.3579 31.9816 23.6894 32.3532H35.4217C35.7532 31.9816 36.1529 31.6856 36.5962 31.4833C37.0396 31.281 37.5172 31.1767 38 31.1767C38.4827 31.1767 38.9604 31.281 39.4038 31.4833C39.8471 31.6856 40.2468 31.9816 40.5783 32.3532H44V31.5099C44.0016 30.9923 43.8558 30.4861 43.5817 30.0574C43.3076 29.6288 42.9179 29.2975 42.4634 29.1068ZM30.6667 26.9362C30.6667 27.1234 30.5964 27.303 30.4714 27.4353C30.3464 27.5677 30.1768 27.6421 30 27.6421H18C17.8232 27.6421 17.6536 27.5677 17.5286 27.4353C17.4036 27.303 17.3333 27.1234 17.3333 26.9362V24.1177C17.3333 23.9305 17.4036 23.7509 17.5286 23.6186C17.6536 23.4862 17.8232 23.4118 18 23.4118H30C30.1768 23.4118 30.3464 23.4862 30.4714 23.6186C30.5964 23.7509 30.6667 23.9305 30.6667 24.1177V26.9362ZM37.1824 27.643L33.5555 27.6472C33.3787 27.6472 33.2092 27.5728 33.0841 27.4405C32.9591 27.3081 32.8889 27.1285 32.8889 26.9413V24.1177C32.8889 23.9305 32.9591 23.7509 33.0841 23.6186C33.2092 23.4862 33.3787 23.4118 33.5555 23.4118H34.9225C35.0706 23.4118 35.2164 23.451 35.3466 23.5258C35.4768 23.6007 35.5873 23.7088 35.668 23.8403L37.5547 26.9161C37.5982 26.9871 37.6228 27.0692 37.626 27.1538C37.6292 27.2384 37.6107 27.3223 37.5726 27.3967C37.5345 27.4712 37.4782 27.5333 37.4095 27.5767C37.3408 27.62 37.2624 27.6429 37.1824 27.643Z" fill="#4069B8"/>
</svg>
