<svg width="60" height="60" viewBox="0 0 60 60" fill="none" xmlns="http://www.w3.org/2000/svg">
<rect x="0.5" y="0.5" width="59" height="59" rx="11.5" fill="#F5F7FB"/>
<rect x="0.5" y="0.5" width="59" height="59" rx="11.5" stroke="#D9E1F1"/>
<path fill-rule="evenodd" clip-rule="evenodd" d="M17.2727 23.9879C17.2727 23.6294 17.5591 23.3362 17.9091 23.3362H22.3636V28.5501H17.2727V23.9879ZM23.6364 23.3362H28.7273V28.5501H23.6364V23.3362ZM30 23.3362H35.0909V28.5501H30V23.3362ZM36.3636 23.3362H40.5955C41.2 23.3362 41.7409 23.7923 41.8364 24.4114L42.5682 29.0389C42.6318 29.5277 42.6955 30.0165 42.6955 30.5053H38.2727L36.3636 28.5501V23.3362ZM16 23.3362V35.0675C16 35.7844 16.5727 36.371 17.2727 36.371H17.3364C17.3046 36.1754 17.2727 35.9474 17.2727 35.7193C17.2727 33.927 18.7046 32.4606 20.4545 32.4606C22.2046 32.4606 23.6364 33.927 23.6364 35.7193C23.6364 35.9474 23.6046 36.1754 23.5727 36.371H35.1545C35.1227 36.1754 35.0909 35.9474 35.0909 35.7193C35.0909 33.927 36.5227 32.4606 38.2727 32.4606C40.0227 32.4606 41.4545 33.927 41.4545 35.7193C41.4545 35.9474 41.4227 36.1754 41.3909 36.371H42.7273C43.4273 36.371 44 35.7844 44 35.0675V30.8963C44 30.2119 43.9364 29.4951 43.8409 28.8106L43.1091 24.1508C42.8864 22.9125 41.8364 22 40.5955 22H17.2727C16.5727 22.0327 16 22.6191 16 23.3362Z" fill="#4069B8"/>
<path fill-rule="evenodd" clip-rule="evenodd" d="M40.5014 35.7186C40.5014 36.9784 39.5043 37.9997 38.2741 37.9997C37.044 37.9997 36.0469 36.9784 36.0469 35.7186C36.0469 34.4588 37.044 33.4375 38.2741 33.4375C39.5043 33.4375 40.5014 34.4588 40.5014 35.7186Z" fill="#4069B8"/>
<path fill-rule="evenodd" clip-rule="evenodd" d="M22.6811 35.7186C22.6811 36.9784 21.6839 37.9997 20.4538 37.9997C19.2237 37.9997 18.2266 36.9784 18.2266 35.7186C18.2266 34.4588 19.2237 33.4375 20.4538 33.4375C21.6839 33.4375 22.6811 34.4588 22.6811 35.7186Z" fill="#4069B8"/>
</svg>
