<svg width="600" height="262" viewBox="0 0 600 262" fill="none" xmlns="http://www.w3.org/2000/svg">
<g clip-path="url(#clip0_10_1038)">
<path d="M359.289 242.868V208.953H372.669C375.242 208.953 377.433 209.444 379.244 210.426C381.054 211.398 382.434 212.75 383.384 214.484C384.344 216.206 384.824 218.193 384.824 220.445C384.824 222.698 384.339 224.685 383.367 226.407C382.396 228.129 380.988 229.471 379.144 230.431C377.312 231.392 375.092 231.872 372.487 231.872H363.959V226.126H371.328C372.708 226.126 373.845 225.888 374.739 225.413C375.645 224.928 376.318 224.26 376.76 223.41C377.212 222.549 377.439 221.56 377.439 220.445C377.439 219.319 377.212 218.337 376.76 217.498C376.318 216.648 375.645 215.991 374.739 215.527C373.834 215.052 372.686 214.815 371.295 214.815H366.459V242.868H359.289ZM389.482 242.868V208.953H396.653V222.946H411.209V208.953H418.363V242.868H411.209V228.858H396.653V242.868H389.482ZM445.224 208.953H452.394V230.978C452.394 233.451 451.804 235.615 450.622 237.469C449.452 239.324 447.813 240.77 445.704 241.808C443.595 242.835 441.139 243.348 438.335 243.348C435.519 243.348 433.057 242.835 430.949 241.808C428.84 240.77 427.201 239.324 426.03 237.469C424.86 235.615 424.275 233.451 424.275 230.978V208.953H431.446V230.365C431.446 231.657 431.727 232.805 432.29 233.809C432.864 234.814 433.67 235.604 434.708 236.178C435.746 236.752 436.955 237.039 438.335 237.039C439.726 237.039 440.935 236.752 441.961 236.178C442.999 235.604 443.799 234.814 444.362 233.809C444.937 232.805 445.224 231.657 445.224 230.365V208.953ZM456.307 208.953H464.338L472.072 223.559H472.403L480.137 208.953H488.168L475.798 230.878V242.868H468.677V230.878L456.307 208.953ZM494.47 242.868H486.786L498.494 208.953H507.734L519.426 242.868H511.742L503.246 216.703H502.981L494.47 242.868ZM493.989 229.537H512.139V235.134H493.989V229.537ZM530.678 208.953V242.868H523.508V208.953H530.678ZM536.578 242.868V208.953H549.959C552.531 208.953 554.722 209.444 556.533 210.426C558.344 211.398 559.724 212.75 560.673 214.484C561.634 216.206 562.114 218.193 562.114 220.445C562.114 222.698 561.628 224.685 560.657 226.407C559.685 228.129 558.277 229.471 556.434 230.431C554.601 231.392 552.382 231.872 549.777 231.872H541.248V226.126H548.617C549.997 226.126 551.134 225.888 552.029 225.413C552.934 224.928 553.607 224.26 554.049 223.41C554.502 222.549 554.728 221.56 554.728 220.445C554.728 219.319 554.502 218.337 554.049 217.498C553.607 216.648 552.934 215.991 552.029 215.527C551.123 215.052 549.975 214.815 548.584 214.815H543.749V242.868H536.578ZM587.72 208.953H594.891V230.978C594.891 233.451 594.3 235.615 593.119 237.469C591.948 239.324 590.309 240.77 588.2 241.808C586.092 242.835 583.635 243.348 580.831 243.348C578.016 243.348 575.554 242.835 573.445 241.808C571.337 240.77 569.697 239.324 568.527 237.469C567.357 235.615 566.771 233.451 566.771 230.978V208.953H573.942V230.365C573.942 231.657 574.224 232.805 574.787 233.809C575.361 234.814 576.167 235.604 577.204 236.178C578.242 236.752 579.451 237.039 580.831 237.039C582.222 237.039 583.431 236.752 584.458 236.178C585.495 235.604 586.296 234.814 586.859 233.809C587.433 232.805 587.72 231.657 587.72 230.365V208.953Z" fill="#4BC2F7"/>
<path d="M539.085 142.905L517.863 135.838V199.438H594.498V80.8747L417.256 20.8076V57.7116L574.062 95.4007V178.001H539.085V142.905Z" fill="#4BC2F7"/>
<path d="M416.862 199.438V69.8818L440.511 75.753L488.513 152.078L489.219 89.8437L510.396 94.932V199.438H489.219L440.511 121.156V199.438H416.862Z" fill="#4069B8"/>
<path fill-rule="evenodd" clip-rule="evenodd" d="M326.865 57.519C326.668 55.4462 328.503 53.7574 330.552 54.1253L411.753 68.7041V124.453L348.729 123.823C339.875 123.735 332.517 116.976 331.679 108.161L326.865 57.519ZM372.061 63.2078L387.78 67.5263V122.097H372.061V63.2078ZM364.201 62.4225L359.485 60.8521V122.097H364.201V62.4225Z" fill="#4069B8"/>
<path d="M146.332 149.381L46.0063 146.379C40.1764 146.204 35.5859 151.307 36.3741 157.086L38.6568 173.821C39.2703 178.319 42.9988 181.742 47.5322 181.97L138.231 186.537C142.255 186.739 145.963 184.366 147.463 180.627L154.808 162.328C157.251 156.24 152.89 149.577 146.332 149.381Z" fill="#4069B8"/>
<path fill-rule="evenodd" clip-rule="evenodd" d="M412.933 20.8967V55.5111C412.933 56.4681 412.085 57.198 411.138 57.0628L318.666 43.866C317.645 43.7204 316.763 44.5791 316.881 45.6029L326.711 130.957C326.8 131.731 327.443 132.323 328.222 132.349L422.085 135.396C422.934 135.424 423.607 136.119 423.607 136.968V197.866C423.607 198.734 422.903 199.438 422.034 199.438H358.048C357.287 199.438 356.635 199.983 356.5 200.732L347.505 250.53C347.384 251.2 346.845 251.716 346.171 251.809L336.36 253.154C333.743 225.083 315.886 203.364 294.247 203.364C270.806 203.364 251.803 228.851 251.803 260.291C251.803 260.816 251.808 261.339 251.819 261.861H151.589L6.58951 247.843C5.88322 247.775 5.31013 247.242 5.19059 246.543L0.0224948 216.304C-0.0602867 215.819 0.088078 215.324 0.423545 214.965L4.91945 210.153C5.22118 209.83 5.3731 209.395 5.33802 208.954L2.66632 175.401C2.65036 175.2 2.67296 174.999 2.73289 174.807L19.8409 120.04C19.9024 119.843 20.0021 119.66 20.1344 119.501L35.1207 101.536C35.4543 101.136 35.5683 100.597 35.4251 100.096L33.5629 93.5854C33.3993 93.0135 33.5723 92.3983 34.0101 91.9955L47.5584 79.5296C47.9737 79.1475 48.5619 79.0172 49.0997 79.1881L56.0341 81.3922C56.5569 81.5584 57.1286 81.4402 57.5425 81.0802L111.386 34.257C111.464 34.1897 111.548 34.1301 111.637 34.0791C156.57 8.38616 210.953 0.653676 232.546 0H319.236C319.344 0 319.452 0.0112371 319.559 0.0335318L411.683 19.3675C412.411 19.5203 412.933 20.1526 412.933 20.8967ZM323.875 254.793L264.4 261.677C264.39 261.217 264.385 260.755 264.385 260.291C264.385 247.013 268.414 235.482 274.322 227.558C280.228 219.636 287.407 215.946 294.247 215.946C301.087 215.946 308.266 219.636 314.172 227.558C319.249 234.367 322.938 243.838 323.875 254.793ZM156.296 144.437L38.426 140.523C32.6349 140.33 28.04 145.354 28.747 151.105L31.9404 177.082C32.4976 181.615 36.2204 185.098 40.78 185.352L145.363 191.195C149.524 191.427 153.345 188.902 154.763 184.983L164.857 157.078C167.037 151.05 162.702 144.649 156.296 144.437ZM299.664 51.1249L298.258 104.508C298.213 106.213 296.818 107.571 295.113 107.571H259.502L259.919 103.669C260.964 93.8983 252.262 85.901 242.614 87.7651L230.995 90.9972L248.628 49.8042C249.124 48.647 250.261 47.8965 251.52 47.8965H296.519C298.289 47.8965 299.71 49.3558 299.664 51.1249ZM113.285 42.4002C112.896 42.4002 112.522 42.5437 112.233 42.8031L37.5272 109.932C36.4546 110.896 37.1364 112.675 38.5784 112.675H199.327C199.934 112.675 200.486 112.325 200.747 111.777L232.657 44.6482C233.153 43.6046 232.392 42.4002 231.236 42.4002H113.285ZM183.422 240.044L208.18 131.127L174.904 214.042C169.122 228.448 155.748 238.226 140.51 239.553L125.319 239.438L10.8951 237.913L160.998 252.832L168.001 253.149C174.145 253.428 179.766 249.707 181.91 243.942L183.359 240.044L183.422 240.044ZM280.442 126.416C279.895 126.416 279.515 126.961 279.704 127.475L282.025 133.754C282.139 134.063 282.434 134.268 282.763 134.268H300.106C300.406 134.268 300.679 134.097 300.812 133.829L303.906 127.55C304.164 127.027 303.783 126.416 303.201 126.416H280.442Z" fill="#4069B8"/>
</g>
<defs>
<clipPath id="clip0_10_1038">
<rect width="600" height="261.861" fill="white"/>
</clipPath>
</defs>
</svg>
